<?xml version="1.0" standalone="no"?>
<!DOCTYPE svg PUBLIC "-//W3C//DTD SVG 20010904//EN"
 "http://www.w3.org/TR/2001/REC-SVG-20010904/DTD/svg10.dtd">
<svg version="1.0" xmlns="http://www.w3.org/2000/svg"
 width="840.000000pt" height="539.000000pt" viewBox="0 0 840.000000 539.000000"
 preserveAspectRatio="xMidYMid meet">
<metadata>
Created by potrace 1.16, written by Peter Selinger 2001-2019
</metadata>
<g transform="translate(0.000000,539.000000) scale(0.100000,-0.100000)"
fill="#000000" stroke="none">
<path d="M2323 4966 c-52 -13 -165 -65 -171 -78 -2 -5 -10 -8 -18 -8 -8 0 -14
-4 -14 -10 0 -5 -4 -10 -9 -10 -14 0 -141 -126 -141 -139 0 -6 -4 -11 -10 -11
-5 0 -10 -7 -10 -15 0 -8 -3 -15 -8 -15 -4 0 -17 -22 -30 -49 l-22 -49 0
-1890 c0 -1610 2 -1895 14 -1923 23 -55 110 -171 156 -209 24 -19 49 -41 56
-47 7 -7 15 -13 18 -13 2 0 31 -16 63 -35 116 -69 -5 -65 1982 -65 1986 0
1837 -5 1984 66 72 34 168 104 176 127 2 7 21 31 42 54 49 54 86 127 110 221
18 73 19 128 19 1818 0 1689 -2 1800 -29 1869 -31 77 -67 141 -100 178 -21 23
-40 47 -42 54 -13 37 -157 127 -274 170 -48 17 -134 18 -1870 20 -1433 1
-1831 -1 -1872 -11z m2842 -809 c97 -32 183 -82 256 -148 30 -27 61 -49 69
-49 52 0 323 97 408 147 24 13 46 23 48 20 2 -2 -18 -49 -45 -104 -41 -82 -64
-113 -129 -177 -44 -43 -95 -87 -113 -98 -19 -12 -29 -23 -23 -25 20 -7 204
36 306 71 54 19 98 31 98 27 0 -10 -97 -129 -160 -197 -30 -32 -87 -83 -126
-113 l-71 -54 -7 -156 c-18 -415 -108 -719 -329 -1103 -88 -154 -217 -313
-367 -454 -62 -57 -146 -127 -181 -149 -8 -5 -49 -32 -89 -59 -254 -170 -592
-289 -925 -326 -134 -15 -418 -12 -550 5 -242 32 -524 123 -728 235 -59 33
-112 60 -117 60 -6 0 -10 3 -10 8 0 4 84 7 188 8 154 0 204 4 286 22 177 39
338 105 481 197 30 19 59 35 63 35 4 0 25 16 46 35 45 39 43 41 -54 49 -203
17 -427 158 -530 336 -37 65 -83 161 -78 165 2 1 35 -2 73 -7 77 -10 246 9
252 28 2 6 -21 16 -52 23 -55 12 -197 77 -203 93 -2 4 -9 8 -15 8 -18 0 -159
139 -196 193 -69 101 -113 235 -124 375 -4 46 -2 52 12 46 106 -48 321 -99
321 -76 0 6 -22 24 -50 41 -88 54 -198 216 -246 364 -25 74 -28 96 -28 227 0
138 2 150 33 240 18 52 38 103 46 114 13 17 17 15 60 -30 141 -147 176 -182
240 -233 38 -31 81 -66 95 -79 25 -22 73 -56 181 -124 170 -109 459 -219 698
-268 108 -21 288 -43 300 -35 5 2 4 28 -1 57 -13 69 -3 247 17 323 18 65 82
208 96 213 5 2 9 10 9 18 0 23 154 169 217 206 147 86 237 108 423 104 125 -2
156 -7 225 -29z"/>
</g>
</svg>
